<svg xmlns="http://www.w3.org/2000/svg" id="Layer_1" data-name="Layer 1" viewBox="0 0 600.133 104.628"><defs><style>.cls-1{fill:#41b43c;}.cls-2{fill:none;stroke:#41b43c;stroke-miterlimit:10;stroke-width:2.855px;}.cls-3{fill:#fff;}.cls-4{fill:#325a28;}</style></defs><title>Mbeya-Avocados-Footer-Logo04</title><path class="cls-1" d="M98.428,58.1V30.3L85.728,52h-1.5l-12.6-21.7V58.1h-2.3V25.9h2.3l13.4,23,13.4-23h2.3V58.1Z"></path><path class="cls-1" d="M132.828,49.8a7.246,7.246,0,0,1-.7,3.3,10.148,10.148,0,0,1-1.9,2.7,8.983,8.983,0,0,1-2.8,1.8,9.737,9.737,0,0,1-3.4.6h-15.1V25.9h15a6.04,6.04,0,0,1,3,.7,7.1,7.1,0,0,1,2.3,1.9,11.041,11.041,0,0,1,1.5,2.6,10.473,10.473,0,0,1,.5,3,8.923,8.923,0,0,1-1.2,4.5,6.646,6.646,0,0,1-3.4,3,8.14,8.14,0,0,1,4.4,3.1A7.429,7.429,0,0,1,132.828,49.8ZM111.528,28V40.9h11.8a6.042,6.042,0,0,0,2.4-.5,6.691,6.691,0,0,0,1.9-1.4,7.194,7.194,0,0,0,1.2-2.1,6.882,6.882,0,0,0,.1-4.9,5.613,5.613,0,0,0-1.2-2,4.887,4.887,0,0,0-1.8-1.4,5.932,5.932,0,0,0-2.3-.5h-12.1Zm19,21.5a7.418,7.418,0,0,0-.5-2.5,5.71,5.71,0,0,0-1.3-2.1,7.006,7.006,0,0,0-1.9-1.5,4.709,4.709,0,0,0-2.4-.5h-13.1V56.1h12.7a6.963,6.963,0,0,0,2.5-.5,7.492,7.492,0,0,0,2-1.5,5.71,5.71,0,0,0,1.3-2.1A4.161,4.161,0,0,0,130.528,49.5Z"></path><path class="cls-1" d="M160.628,56v2.1h-21.4V25.9h21V28h-18.7V40.6h16.4v2h-16.4V56Z"></path><path class="cls-1" d="M166.128,25.9l11.2,17.8,11.3-17.8h2.6l-12.7,20V58.1h-2.3V45.9L163.628,26h2.5Z"></path><path class="cls-1" d="M202.628,25.9h2l13.6,32.2h-2.4l-4.5-10.6h-15.4l-4.5,10.6h-2.5Zm8,19.7-7-16.9-7.2,16.9Z"></path><path class="cls-2" d="M70.428,68.7a34.5,34.5,0,0,1-69,0c0-10.7,3.8-20.8,12.6-26.6l44.4-25.6s7.2-4.3,12.1,1.8"></path><path class="cls-3" d="M23.128,60.7a15.286,15.286,0,0,0,27.9,12.5c3.5-7.7,1.3-18.7-6.4-22.1S26.528,53,23.128,60.7Z"></path><line class="cls-2" x1="70.428" y1="68.7" x2="70.428" y2="26"></line><path class="cls-4" d="M360.428,12.9h0c2.9-.4,3.8-.8,4.2-1.1a1.565,1.565,0,0,0,.8-1.1,1.609,1.609,0,0,0-.4-1.1,4.6,4.6,0,0,0-2.1-1.1,9.253,9.253,0,0,0-2.9-.2c-5.6.5-12,1.3-19,2.4s-14.3,2.5-21.8,4c-7.5,1.6-15.1,3.3-22.8,5.3-7.5,1.9-14.8,3.8-21.7,5.8a4.171,4.171,0,0,0-2.8-1.1c-.8,0-1.8.5-2.1,2.6-2.9.9-5.8,1.8-8.5,2.7-2.9.9-5.6,1.9-8.1,2.8a2.293,2.293,0,0,0-1.8,1.6,1.918,1.918,0,0,0,.6,2,3.737,3.737,0,0,0,2.3.9,7.513,7.513,0,0,0,3.7-.6c.5-.2,1.5-.5,4.4-1.4,2.1-.6,4.7-1.4,7.8-2.3.2,1.7.4,3.8.5,6.4.2,3,.3,6.3.4,9.9.2,3.5.2,7.2.2,10.9,0,3.8,0,7.4.1,10.7,0,3.4.1,6.4.1,9s0,4.6-.1,5.8c-.2,2.8,0,3.6.2,4.1a1.789,1.789,0,0,0,.9,1h.2a1.394,1.394,0,0,0,.9-.4,6.874,6.874,0,0,0,1.4-2,11.948,11.948,0,0,0,1.1-2.6c.2-.4.4-1.4.7-5,.2-2.6.4-5.8.5-9.5.2-3.7.3-7.6.5-11.8s.2-8.2.3-12,.2-7.1.2-9.9c0-2.9,0-4.7-.1-5.6a10.5,10.5,0,0,0-.2-1.3c3.8-1.1,8-2.3,12.5-3.5,4.7-1.3,9.6-2.6,14.9-3.9,5-1.3,10.2-2.6,15.5-3.8,5.2-1.2,10.3-2.3,15.1-3.3,4.9-1,9.4-1.8,13.6-2.4,3.9-.4,7.6-.8,10.8-.9"></path><path class="cls-4" d="M308.328,80.1h0c-.4-1.3-.8-2.5-1.3-3.7a14.882,14.882,0,0,0-1.6-3.1,3.948,3.948,0,0,0-3.2-1.7,8.686,8.686,0,0,0-4.1,1.1q-1.8,1.05-3.3,2.1a15.408,15.408,0,0,1-2.6,1.8c-.5.3-.7.3-.6.4a5.5,5.5,0,0,1-.5-3.3c.2-1.5.5-3.2.9-5,.5-1.9,1.1-3.8,1.7-5.6.7-1.9,1.3-3.6,1.9-5.1a24.974,24.974,0,0,1,1.7-3.9c.8-1.7.8-1.9.8-2.1a8,8,0,0,0-.4-1.5c-.2-.8-1-1.6-2.9-1.4-2.3.2-4.1,1.6-5.5,4.1a32.371,32.371,0,0,0-3,8.1,68.342,68.342,0,0,0-1.4,8.7,45.748,45.748,0,0,0-.2,5.9,5.209,5.209,0,0,0,1.3,3.2,8.338,8.338,0,0,0,2.3,1.9,6.738,6.738,0,0,0,2.6.9,5.96,5.96,0,0,0,1.8.1,24.4,24.4,0,0,0,3.2-.8c1.1-.5,2.5-.9,4-1.5a13.345,13.345,0,0,0,3.8,5.4c1.8,1.4,3.2,2,4.1,2h.3a2.568,2.568,0,0,0,2-.8c.4-.3,1.2-1.3-.1-2.9a11.517,11.517,0,0,1-1.7-3.3"></path><path class="cls-4" d="M318.128,72.9a10.79,10.79,0,0,1-.3-1.9,2.392,2.392,0,0,1,.3-1.5,1.789,1.789,0,0,1,.9-1,1.077,1.077,0,0,1,.8-.2h.2c.3,0,.3.2.4.2a1.339,1.339,0,0,1-.1,1.4c-.4.5-.9,1.2-1.6,2a6.363,6.363,0,0,1-.6,1m8.9,8.1h0a14.75,14.75,0,0,1-3.5-1.5,15.817,15.817,0,0,1-3.6-2.9,4.194,4.194,0,0,1-.9-1.4,7.5,7.5,0,0,0,1.5,0,4.471,4.471,0,0,0,2.3-1.1,6.48,6.48,0,0,0,1.7-2,13.384,13.384,0,0,0,1.3-2.3,5.626,5.626,0,0,0,.5-2.3,4.686,4.686,0,0,0-1.4-2.9,6.083,6.083,0,0,0-4.1-1.1,17.066,17.066,0,0,0-3,.5,9.884,9.884,0,0,0-3.3,1.5,7.471,7.471,0,0,0-2.5,3,9.3,9.3,0,0,0-.7,4.5c.3,3.6,1.4,6.3,3.4,8a13.056,13.056,0,0,0,6,3.2,16.341,16.341,0,0,0,3.6.5,13.612,13.612,0,0,0,2.1-.2c1.7-.3,3.1-.7,3-1.7-.2-1-1.3-1.5-2.4-1.8"></path><path class="cls-4" d="M390.228,77.2h0l-.1-.2.1.2h0m-33.3-5.3c1.4,2.4,2.3,5.9,2.6,10.3a15.924,15.924,0,0,1-.2,3.5,28.924,28.924,0,0,1-1.1,5.1,15.274,15.274,0,0,1-2.3,4.6,4.026,4.026,0,0,1-3.4,2,2.372,2.372,0,0,1-2-.7c-.3-.3-.8-1.3-1.1-4.3a44.3,44.3,0,0,1,.8-12.3,125.638,125.638,0,0,1,3.3-13.1,41.536,41.536,0,0,1,3.4,4.9m32.7,3.9h0a2,2,0,0,1-.9.2.845.845,0,0,1-.6-.2,2.786,2.786,0,0,1-.5-1.7,15.3,15.3,0,0,1,.2-3.6c.2-1.5.5-2.9.8-4.4a36.14,36.14,0,0,1,.8-3.8,7.583,7.583,0,0,0,.5-2.3,3.107,3.107,0,0,0-2-2.9,7.774,7.774,0,0,0-3-.4,10.891,10.891,0,0,0-2.6.5,14.43,14.43,0,0,1-2.4.5c-1.4.2-1.7-.2-1.7-.2a2.22,2.22,0,0,1-.4-.5s0-.4.9-1.3a4.392,4.392,0,0,0,1.3-3.6,4.267,4.267,0,0,0-1.1-2.1,3.223,3.223,0,0,0-2.9-1.3,6.885,6.885,0,0,0-3.7,1.9,5.212,5.212,0,0,0-1.8,3.6c-1.4.2-2.7.5-4.1.8-2,.4-3.9.8-5.9,1.3-1.4.4-2.6.7-3.8,1.1,1.5-4.1,3.2-8,4.9-11.8,1.9-4.2,3.8-8.1,5.7-11.5,1.8-3.4,3.5-6.2,4.9-8.4a16.249,16.249,0,0,1,3-3.8c.9-.6,1.4-1.2,1.4-1.8a1.709,1.709,0,0,0-.7-1.4,4.232,4.232,0,0,0-2.9-1.1c-1.6.2-3.3,1.5-5.4,4.1a74.2,74.2,0,0,0-6,9.6c-2.1,3.9-4.2,8.4-6.3,13.3s-4,9.9-5.7,15.1c-2,.9-2.6,1.3-2.5,2a2.941,2.941,0,0,0,1.3,1.6,130.6,130.6,0,0,0-4.1,16.7,51.491,51.491,0,0,0-1,14.1c.3,3.2,1.5,5.5,3.5,6.6a10.275,10.275,0,0,0,5.3,1.4,2.769,2.769,0,0,0,.9-.1,10.356,10.356,0,0,0,5.6-2.4,16.971,16.971,0,0,0,4.2-5,27.714,27.714,0,0,0,2.6-6.4,20.425,20.425,0,0,0,.6-6.9,31.939,31.939,0,0,0-1.7-8.4,25.3,25.3,0,0,0-2.7-5.7,14.736,14.736,0,0,0-3.2-3.7l-1.7-1.4c.5-.2,1.1-.4,2-.7,1.7-.5,3.6-1.1,5.7-1.7s4.1-1.1,6-1.6l.6-.2a6.343,6.343,0,0,0,1.4,2.4,11.555,11.555,0,0,0,3.2,2,16.059,16.059,0,0,0,3.8.8,19.3,19.3,0,0,0,2.3.1c-.3,1.5-.6,3.2-.8,4.8a29,29,0,0,0-.2,6.6c.2,2.6,1.1,4.4,2.6,5.1a5.341,5.341,0,0,0,3.6.9,4.36,4.36,0,0,0,3-1.5,3.682,3.682,0,0,0,1.1-2.9l.2-.5-.4-.4c-.3.3-.8.2-1.2.5"></path><path class="cls-4" d="M410.428,58.9a3.14,3.14,0,0,0-2-.4h0a4.347,4.347,0,0,0-2,.7,3.587,3.587,0,0,0-1.5,1.7q-.3.75-.9,2.7c-.5,1.3-1,2.7-1.6,4.1a26.937,26.937,0,0,1-2,3.8c-.6,1-1.1,1.3-1.4,1.4a4.345,4.345,0,0,1-.1-1.9q.3-2.85.9-6.6c.5-2.6.9-5,1.4-7.3a21.5,21.5,0,0,0,.7-5,3.585,3.585,0,0,0-1.1-2.3,2.931,2.931,0,0,0-2.1-.8h0a3.523,3.523,0,0,0-2.3.9,3.023,3.023,0,0,0-1.1,2.6c0,.5-.2,1.4-.5,3.5-.3,1.7-.6,3.5-.9,5.6-.3,2-.6,4.1-.8,6.2a33.478,33.478,0,0,0-.1,5.4,6.282,6.282,0,0,0,1.4,3.2,4.2,4.2,0,0,0,3.6,1.7h.5a7.022,7.022,0,0,0,4.2-2.4c.9-1.1,1.7-1.9,2.3-2.6a8.65,8.65,0,0,0,1.7.7c.5.2,1.9.3,2.6-1.7a18.394,18.394,0,0,0,.6-2.3c.2-1,.5-2,.7-3.1s.3-2.1.5-3.2c.2-1,.2-1.8.3-2.5a2.24,2.24,0,0,0-1-2.1"></path><path class="cls-4" d="M422.128,68.5h0c-.1-.8-.1-1.7-.2-2.9-.1-1.1-.2-2.2-.2-3.3s0-2.2.1-3.4a3.954,3.954,0,0,0-1.5-2.9,5.461,5.461,0,0,0-2.8-1.2,4.45,4.45,0,0,0-2.8.2c-1.6.5-1.7,1.4-1.7,1.9a18.558,18.558,0,0,0,.8,6,34.063,34.063,0,0,0,1.7,4.4c.6,1.2,1.2,2.2,1.7,3a6.826,6.826,0,0,0,1.4,1.5,2.7,2.7,0,0,0,1.7.7,1.884,1.884,0,0,0,.8-.2c1.1-.4,1.4-1.2,1.1-2.4.2-.2,0-.5-.1-1.4"></path><path class="cls-4" d="M441.628,67.9h0a6.644,6.644,0,0,1-2-1.6,15.116,15.116,0,0,1-2.3-3.5,19.415,19.415,0,0,1-1.6-6.9,22.675,22.675,0,0,1,.1-6,8.323,8.323,0,0,1,1.1-2.9c.5-.7.9-.8,1.1-.8a2.226,2.226,0,0,0,1.3-.5c.2-.2.9-.5.9-1.3a1.32,1.32,0,0,0-.8-1.1,4.85,4.85,0,0,0-2-.5c.5-1.4.9-2.9,1.2-4.1a38.163,38.163,0,0,0,1.1-3.8,8.222,8.222,0,0,0,.5-2.5,5.1,5.1,0,0,0-1.2-2.3,4,4,0,0,0-3.7-1.1c-.7.1-1.2.7-1.8,2.1-.5,1.1-.9,2.4-1.4,3.9s-.9,3.1-1.4,4.7a37.237,37.237,0,0,1-1.1,3.8,39.545,39.545,0,0,1-4.3,2.8,12.652,12.652,0,0,0-4.1,3.4,1.936,1.936,0,0,0,.1,2.8,3.552,3.552,0,0,0,2.8,1.1,7.134,7.134,0,0,0,2-.6,12.81,12.81,0,0,0,2-1.1,2.092,2.092,0,0,1,.6-.4,25.925,25.925,0,0,0,.5,8,24.3,24.3,0,0,0,2.9,6.9,13.491,13.491,0,0,0,4.1,4.4,6.708,6.708,0,0,0,4,1.4h.5a4.284,4.284,0,0,0,1.6-.5c.9-.6.8-1.9.8-2.3-.1-.7-.9-1.2-1.5-1.5"></path><path class="cls-4" d="M469.128,58.3h0a7.99,7.99,0,0,1-2.3,2.5c-.6.5-.9.5-.9.5-.1-.1-.2-.3-.1-.9a7.864,7.864,0,0,1,.7-2.2,26.956,26.956,0,0,1,1.5-2.9c.5-.8.9-1.6,1.4-2.3a2.568,2.568,0,0,1,.8,2,6.2,6.2,0,0,1-1.1,3.3m5.6-8h0a14.332,14.332,0,0,0-2.9-1c.5-.9,1.1-1.7,1.4-2.4.8-1.4,1-1.9.9-2.2a1.619,1.619,0,0,0-1.1-1.2,5.137,5.137,0,0,0-2.3-.2,7.414,7.414,0,0,0-4.7,2.7,22.192,22.192,0,0,0-3.4,5.2,35.163,35.163,0,0,0-2.1,5.6,13.084,13.084,0,0,0-.7,3.9,5.564,5.564,0,0,0,2.3,4.1,6.561,6.561,0,0,0,4.1,1.4h.7a9.387,9.387,0,0,0,4-1.5,14.715,14.715,0,0,0,3.5-3.1,18.784,18.784,0,0,0,2.4-3.6,6.482,6.482,0,0,0,.9-3.5,4.741,4.741,0,0,0-3-4.2"></path><path class="cls-4" d="M491.028,60.2c1.4,2.4,2.3,5.9,2.6,10.3a15.924,15.924,0,0,1-.2,3.5,28.924,28.924,0,0,1-1.1,5.1,15.274,15.274,0,0,1-2.3,4.6,4.026,4.026,0,0,1-3.4,2,2.372,2.372,0,0,1-2-.7c-.3-.3-.8-1.3-1.1-4.3a44.3,44.3,0,0,1,.8-12.3,125.638,125.638,0,0,1,3.3-13.1,30.271,30.271,0,0,1,3.4,4.9m20.1-18.3c-1.4.2-3.1.4-4.9.7s-3.7.7-5.6,1.1c-2,.4-3.9.8-5.9,1.3-1.4.4-2.6.7-3.8,1.1,1.5-4.1,3.2-8,4.9-11.8,1.9-4.2,3.8-8.1,5.7-11.5,1.8-3.4,3.5-6.2,4.9-8.4a16.249,16.249,0,0,1,3-3.8c.9-.6,1.4-1.2,1.4-1.8a1.709,1.709,0,0,0-.7-1.4,4.232,4.232,0,0,0-2.9-1.1c-1.6.2-3.3,1.5-5.4,4.1a74.2,74.2,0,0,0-6,9.6c-2,3.9-4.2,8.4-6.3,13.3s-4,9.9-5.7,15.1c-2,.9-2.6,1.3-2.5,2a2.941,2.941,0,0,0,1.3,1.6,126.643,126.643,0,0,0-4.1,16.7,51.958,51.958,0,0,0-1,14.1c.3,3.2,1.5,5.5,3.5,6.6a10.275,10.275,0,0,0,5.3,1.4h.9a10.356,10.356,0,0,0,5.6-2.4,18.345,18.345,0,0,0,4.2-5,27.714,27.714,0,0,0,2.6-6.4,20.425,20.425,0,0,0,.6-6.9,32.814,32.814,0,0,0-1.7-8.4,25.3,25.3,0,0,0-2.7-5.7,17.067,17.067,0,0,0-3.2-3.7l-1.7-1.4c.5-.2,1.1-.4,2-.7,1.7-.5,3.6-1.1,5.7-1.7s4.1-1.1,6-1.6c2-.5,3.2-.8,4-.9a15.831,15.831,0,0,0,3.7-1.9c.3-.2,1.1-.8.8-1.5-.5-.9-1.5-.7-2-.7"></path><path class="cls-4" d="M539.828,26.9a5.921,5.921,0,0,0-1.7-1.8h0a3.2,3.2,0,0,0-2.5-.5,2.986,2.986,0,0,0-2,2.3c-.3,1.1-.8,2.9-1.4,5.4s-1.2,5.1-1.7,8-1,5.7-1.4,8.4a28.194,28.194,0,0,0-.3,6.9,22.367,22.367,0,0,0,1.3,6,11.117,11.117,0,0,0,2.2,3.5,7.945,7.945,0,0,0,2.3,1.7,1.978,1.978,0,0,0,1,.2,1.433,1.433,0,0,0,1.1-.5,1.358,1.358,0,0,0,.1-1.7c-.2-.4-.4-.8-.7-1.5a25.593,25.593,0,0,1-.9-2.6,13.022,13.022,0,0,1-.4-4.3,47.017,47.017,0,0,1,.7-7.9c.5-2.9,1-5.7,1.7-8.3.6-2.6,1.3-4.9,1.9-6.9l1.1-3.8a4.088,4.088,0,0,0-.4-2.6"></path><path class="cls-4" d="M548.228,61.1c0-.8-.1-1.7-.1-2.9-.1-1.1-.1-2.2-.1-3.3s.1-2.2.2-3.4a3.555,3.555,0,0,0-1.4-2.9,5.672,5.672,0,0,0-2.7-1.3,6.6,6.6,0,0,0-2.8,0c-1.6.4-1.7,1.4-1.7,1.8a18.689,18.689,0,0,0,.5,6,44.419,44.419,0,0,0,1.5,4.4,14.87,14.87,0,0,0,1.7,3.1,4.665,4.665,0,0,0,1.4,1.6,2.6,2.6,0,0,0,1.8.8,2.353,2.353,0,0,0,.8-.2,1.694,1.694,0,0,0,1.2-2.3c-.3-.1-.3-.5-.3-1.4"></path><path class="cls-4" d="M566.928,67.8a28.924,28.924,0,0,1-1.1,5.1,15.274,15.274,0,0,1-2.3,4.6,4.026,4.026,0,0,1-3.4,2,2.372,2.372,0,0,1-2-.7c-.3-.3-.8-1.3-1.1-4.3a44.3,44.3,0,0,1,.8-12.3,125.646,125.646,0,0,1,3.3-13.1,28.455,28.455,0,0,1,3.5,4.8c1.4,2.4,2.3,5.9,2.6,10.3a35.8,35.8,0,0,1-.3,3.6m4.9-12.5a25.3,25.3,0,0,0-2.7-5.7,17.066,17.066,0,0,0-3.2-3.7l-1.7-1.4c.5-.2,1.1-.4,2-.7,1.7-.5,3.6-1.1,5.7-1.7s4.1-1.1,6-1.6c2-.5,3.2-.8,4-.9a15.831,15.831,0,0,0,3.7-1.9c.3-.2,1.1-.8.8-1.5s-1.3-.7-1.8-.6c-1.4.2-3.1.4-4.9.7s-3.7.7-5.6,1.1c-2,.4-3.9.8-5.9,1.3-1.4.4-2.6.7-3.8,1.1,1.5-4.1,3.2-8,4.9-11.8,1.9-4.2,3.8-8.1,5.7-11.5,1.8-3.4,3.5-6.2,4.9-8.4a16.248,16.248,0,0,1,3-3.8c.9-.6,1.4-1.2,1.4-1.8a1.709,1.709,0,0,0-.7-1.4,4.232,4.232,0,0,0-2.9-1.1c-1.6.2-3.3,1.5-5.4,4.1a74.189,74.189,0,0,0-6,9.6c-2.1,3.9-4.2,8.4-6.3,13.4-2.1,4.9-4,9.9-5.7,15.1-2,.9-2.6,1.3-2.5,2a2.941,2.941,0,0,0,1.3,1.6,130.6,130.6,0,0,0-4.1,16.7,51.957,51.957,0,0,0-1,14.1c.3,3.2,1.5,5.5,3.5,6.6a10.275,10.275,0,0,0,5.3,1.4,2.769,2.769,0,0,0,.9-.1,10.356,10.356,0,0,0,5.6-2.4,18.345,18.345,0,0,0,4.2-5,27.714,27.714,0,0,0,2.6-6.4,20.425,20.425,0,0,0,.6-6.9,41.422,41.422,0,0,0-1.9-8.5"></path><path class="cls-4" d="M588.928,52a10.79,10.79,0,0,1-.3-1.9,2.392,2.392,0,0,1,.3-1.5,2.229,2.229,0,0,1,.9-1,1.077,1.077,0,0,1,.8-.2h.2c.3,0,.3.2.4.2a1.339,1.339,0,0,1-.1,1.4c-.4.5-.9,1.2-1.6,2-.3.5-.5.8-.6,1m8.8,8.2h0a14.751,14.751,0,0,1-3.5-1.5,18.318,18.318,0,0,1-3.6-2.9,4.194,4.194,0,0,1-.9-1.4,7.5,7.5,0,0,0,1.5,0,4.471,4.471,0,0,0,2.3-1.1,8.2,8.2,0,0,0,1.7-2,13.384,13.384,0,0,0,1.3-2.3,5.626,5.626,0,0,0,.5-2.3,4.685,4.685,0,0,0-1.4-2.9,5.453,5.453,0,0,0-4.1-1.1,18.725,18.725,0,0,0-3,.5,9.884,9.884,0,0,0-3.3,1.5,7.471,7.471,0,0,0-2.5,3,9.3,9.3,0,0,0-.7,4.5c.3,3.6,1.4,6.3,3.4,8a13.056,13.056,0,0,0,6,3.2,16.341,16.341,0,0,0,3.6.5,13.611,13.611,0,0,0,2.1-.2c1.7-.3,3.1-.7,3-1.7-.2-1.1-1.2-1.5-2.4-1.8"></path><path class="cls-4" d="M416.228,49a4.729,4.729,0,0,0,3.3-1.9,5.277,5.277,0,0,0,1.2-2.9,1.929,1.929,0,0,0-1.4-1.6,11.688,11.688,0,0,0-2-.6,8.918,8.918,0,0,0-2.2-.3,10.328,10.328,0,0,0-1.4-.1,3.861,3.861,0,0,0-2,.8,2.676,2.676,0,0,0-1.1,2.7,4.29,4.29,0,0,0,1.9,3.2,6.6,6.6,0,0,0,3.2.8,1.339,1.339,0,0,0,.5-.1"></path><path class="cls-4" d="M552.028,37.2a1.929,1.929,0,0,0-1.4-1.6h0a11.687,11.687,0,0,0-2-.6,8.918,8.918,0,0,0-2.2-.3,10.328,10.328,0,0,0-1.4-.1,3.861,3.861,0,0,0-2,.8,2.676,2.676,0,0,0-1.1,2.7,4.29,4.29,0,0,0,1.9,3.2,6.6,6.6,0,0,0,3.2.8h.7a4.539,4.539,0,0,0,3.3-1.9,5.276,5.276,0,0,0,1-3"></path><path class="cls-3" d="M87.64,71.115h1.93L96.937,89.15H94.5l-2.134-5.284h-7.57L82.687,89.15H80.248Zm4.217,10.974-3.251-8.332-3.353,8.332Z"></path><path class="cls-3" d="M98.384,71.115l5.97,15.165L110.3,71.115h2.413L105.345,89.15h-1.981L95.971,71.115Z"></path><path class="cls-3" d="M121.779,89.277a7.688,7.688,0,0,1-3.467-.775,8.551,8.551,0,0,1-2.68-2.057,9.347,9.347,0,0,1-1.728-2.934,9.684,9.684,0,0,1-.609-3.378,9.381,9.381,0,0,1,.647-3.455,9.534,9.534,0,0,1,1.791-2.921,8.626,8.626,0,0,1,2.705-2.019,7.739,7.739,0,0,1,3.391-.75,7.415,7.415,0,0,1,3.455.8,8.857,8.857,0,0,1,2.667,2.1,9.725,9.725,0,0,1,2.337,6.274,9.367,9.367,0,0,1-.648,3.455,9.488,9.488,0,0,1-1.778,2.909,8.557,8.557,0,0,1-2.693,2.006A7.732,7.732,0,0,1,121.779,89.277Zm-6.172-9.145a8.047,8.047,0,0,0,.444,2.654,7.327,7.327,0,0,0,1.257,2.273,6.087,6.087,0,0,0,1.956,1.575,5.5,5.5,0,0,0,2.54.584A5.33,5.33,0,0,0,124.4,86.6a6.324,6.324,0,0,0,1.943-1.626,7.255,7.255,0,0,0,1.22-2.273,8.142,8.142,0,0,0,.419-2.565,8.059,8.059,0,0,0-.444-2.654,7.054,7.054,0,0,0-1.271-2.261,6.365,6.365,0,0,0-1.956-1.562,5.733,5.733,0,0,0-5.093.025,6.255,6.255,0,0,0-1.943,1.6,7.312,7.312,0,0,0-1.232,2.261A7.992,7.992,0,0,0,115.607,80.133Z"></path><path class="cls-3" d="M132.3,80.006a9.647,9.647,0,0,1,.571-3.239,9.014,9.014,0,0,1,1.677-2.9,8.45,8.45,0,0,1,2.705-2.07,8.12,8.12,0,0,1,3.632-.788,7.589,7.589,0,0,1,4.141,1.092,6.79,6.79,0,0,1,2.565,2.845l-1.8,1.168a5.249,5.249,0,0,0-.978-1.448,5.041,5.041,0,0,0-1.245-.94,5.371,5.371,0,0,0-1.384-.508,6.663,6.663,0,0,0-1.4-.152,5.515,5.515,0,0,0-2.654.622,6.141,6.141,0,0,0-1.943,1.626A7.034,7.034,0,0,0,135,77.58a8.406,8.406,0,0,0-.394,2.527,7.794,7.794,0,0,0,.47,2.705,7.449,7.449,0,0,0,1.309,2.273,6.37,6.37,0,0,0,1.981,1.575,5.388,5.388,0,0,0,2.489.584,6.316,6.316,0,0,0,1.461-.178,5.336,5.336,0,0,0,1.435-.571,6.142,6.142,0,0,0,1.283-.991,4.832,4.832,0,0,0,.978-1.436l1.905,1.042a5.621,5.621,0,0,1-1.207,1.791,7.642,7.642,0,0,1-1.753,1.308,8.922,8.922,0,0,1-2.07.813,8.6,8.6,0,0,1-2.134.279,7.207,7.207,0,0,1-3.4-.813,9.08,9.08,0,0,1-2.68-2.121,9.7,9.7,0,0,1-1.753-2.972A9.6,9.6,0,0,1,132.3,80.006Z"></path><path class="cls-3" d="M156.02,71.115h1.93l7.367,18.035h-2.438l-2.134-5.284h-7.57l-2.108,5.284h-2.438Zm4.217,10.974-3.251-8.332-3.353,8.332Z"></path><path class="cls-3" d="M167.73,89.15V71.115h6.249a9.468,9.468,0,0,1,3.8.711,7.747,7.747,0,0,1,2.73,1.93,8.043,8.043,0,0,1,1.639,2.858,10.985,10.985,0,0,1,.546,3.493,10.757,10.757,0,0,1-.609,3.721,7.982,7.982,0,0,1-1.753,2.845,7.85,7.85,0,0,1-2.756,1.829,9.563,9.563,0,0,1-3.595.648Zm12.65-9.043a9,9,0,0,0-.419-2.807,6.029,6.029,0,0,0-1.245-2.2,5.818,5.818,0,0,0-2.02-1.436,6.748,6.748,0,0,0-2.718-.521h-3.962V87.118h3.962a6.759,6.759,0,0,0,2.756-.533,5.528,5.528,0,0,0,2.007-1.474,6.492,6.492,0,0,0,1.219-2.223A8.9,8.9,0,0,0,180.38,80.108Z"></path><path class="cls-3" d="M193.233,89.277a7.688,7.688,0,0,1-3.467-.775,8.551,8.551,0,0,1-2.68-2.057,9.347,9.347,0,0,1-1.728-2.934,9.684,9.684,0,0,1-.609-3.378,9.381,9.381,0,0,1,.647-3.455,9.534,9.534,0,0,1,1.791-2.921,8.626,8.626,0,0,1,2.705-2.019,7.739,7.739,0,0,1,3.391-.75,7.415,7.415,0,0,1,3.455.8,8.857,8.857,0,0,1,2.667,2.1,9.725,9.725,0,0,1,2.337,6.274,9.367,9.367,0,0,1-.648,3.455,9.488,9.488,0,0,1-1.778,2.909,8.557,8.557,0,0,1-2.693,2.006A7.732,7.732,0,0,1,193.233,89.277Zm-6.172-9.145a8.047,8.047,0,0,0,.444,2.654,7.327,7.327,0,0,0,1.257,2.273,6.087,6.087,0,0,0,1.956,1.575,5.5,5.5,0,0,0,2.54.584,5.33,5.33,0,0,0,2.591-.622,6.324,6.324,0,0,0,1.943-1.626,7.255,7.255,0,0,0,1.22-2.273,8.142,8.142,0,0,0,.419-2.565,8.059,8.059,0,0,0-.444-2.654,7.054,7.054,0,0,0-1.271-2.261,6.365,6.365,0,0,0-1.956-1.562,5.733,5.733,0,0,0-5.093.025,6.255,6.255,0,0,0-1.943,1.6,7.312,7.312,0,0,0-1.232,2.261A7.992,7.992,0,0,0,187.061,80.133Z"></path><path class="cls-3" d="M215.51,74.9a3.773,3.773,0,0,0-.812-.686,7.272,7.272,0,0,0-1.143-.6,8.085,8.085,0,0,0-1.385-.432,7.251,7.251,0,0,0-1.562-.165,4.908,4.908,0,0,0-3.086.787,2.623,2.623,0,0,0-.978,2.159,2.4,2.4,0,0,0,.28,1.219,2.3,2.3,0,0,0,.876.826,6.688,6.688,0,0,0,1.486.6q.888.254,2.108.533a21.878,21.878,0,0,1,2.527.7,7.369,7.369,0,0,1,1.931.978,3.921,3.921,0,0,1,1.219,1.422,4.57,4.57,0,0,1,.419,2.058,4.716,4.716,0,0,1-.508,2.248,4.51,4.51,0,0,1-1.385,1.575,5.986,5.986,0,0,1-2.07.915,10.908,10.908,0,0,1-2.591.292,11.968,11.968,0,0,1-3.95-.647,11.042,11.042,0,0,1-3.391-1.893l1.092-1.931a6.013,6.013,0,0,0,1.054.864,8.581,8.581,0,0,0,1.473.775,10.882,10.882,0,0,0,1.778.559,8.992,8.992,0,0,0,1.994.216,5.535,5.535,0,0,0,3-.686,2.536,2.536,0,0,0,.724-3.34,2.916,2.916,0,0,0-1-.9,7.744,7.744,0,0,0-1.639-.673q-.978-.292-2.223-.6a22.132,22.132,0,0,1-2.413-.711,6.555,6.555,0,0,1-1.74-.915,3.439,3.439,0,0,1-1.054-1.3,4.285,4.285,0,0,1-.356-1.829,5.15,5.15,0,0,1,.483-2.286,4.79,4.79,0,0,1,1.346-1.677,5.872,5.872,0,0,1,2.058-1.029,9.332,9.332,0,0,1,8.509,1.715Z"></path></svg>