<svg xmlns="http://www.w3.org/2000/svg" id="Layer_1" data-name="Layer 1" viewBox="0 0 152.833 63.933"><defs><style>.cls-1{fill:#41b43c;}.cls-2{fill:none;stroke:#41b43c;stroke-miterlimit:10;stroke-width:2px;}.cls-3{fill:#b9c300;}</style></defs><title>Mbeya-Avocados-logo03</title><path class="cls-1" d="M68.916,31.181v-19.5L60.026,26.89H59.01L50.12,11.681v19.5H48.5V8.639h1.62l9.4,16.129,9.4-16.129h1.613V31.181Z" transform="translate(0 0)"></path><path class="cls-1" d="M93.047,25.339a5.563,5.563,0,0,1-.477,2.3,5.88,5.88,0,0,1-1.3,1.857,5.949,5.949,0,0,1-1.937,1.243,6.267,6.267,0,0,1-2.35.444H76.441V8.639h10.51a4.454,4.454,0,0,1,2.127.508A5.311,5.311,0,0,1,90.7,10.465a6.048,6.048,0,0,1,1.036,1.84,6.2,6.2,0,0,1,.365,2.08,5.994,5.994,0,0,1-.857,3.144,5.1,5.1,0,0,1-2.381,2.1,5.605,5.605,0,0,1,3.064,2.143A5.976,5.976,0,0,1,93.047,25.339ZM78.061,10.1v9.017h8.255A3.713,3.713,0,0,0,88,18.735a4.394,4.394,0,0,0,1.317-1,4.783,4.783,0,0,0,1.191-3.127,4.914,4.914,0,0,0-.3-1.73,4.764,4.764,0,0,0-.826-1.429,3.927,3.927,0,0,0-1.254-.984,3.575,3.575,0,0,0-1.619-.365ZM91.428,25.117a4.944,4.944,0,0,0-1.207-3.223,4.3,4.3,0,0,0-1.35-1.032,3.737,3.737,0,0,0-1.667-.381H78.061v9.24h8.922a4.089,4.089,0,0,0,1.762-.381,4.375,4.375,0,0,0,1.4-1.032,5.216,5.216,0,0,0,.937-1.477A4.354,4.354,0,0,0,91.428,25.117Z" transform="translate(0 0)"></path><path class="cls-1" d="M112.478,29.721v1.46H97.459V8.639h14.732V10.1H99.079v8.858h11.462v1.4H99.079v9.367Z" transform="translate(0 0)"></path><path class="cls-1" d="M116.32,8.639l7.874,12.478L132.1,8.639h1.81l-8.89,14.034v8.509H123.4V22.609l-8.86-13.97Z" transform="translate(0 0)"></path><path class="cls-1" d="M141.911,8.639h1.4l9.522,22.542h-1.714l-3.144-7.43H137.212l-3.143,7.43h-1.747Zm5.62,13.78L142.61,10.607l-5.017,11.811Z" transform="translate(0 0)"></path><path class="cls-2" d="M49.333,38.611A24.167,24.167,0,0,1,1,38.922q0-.155,0-.311c0-7.508,2.667-14.6,8.794-18.648L40.875,2.028s5.042-3,8.458,1.25" transform="translate(0 0)"></path><path class="cls-3" d="M16.17,32.971A10.729,10.729,0,0,0,35.7,41.865l.052-.116c2.424-5.407.906-13.08-4.5-15.5S18.594,27.564,16.17,32.971Z" transform="translate(0 0)"></path><line class="cls-2" x1="49.333" y1="38.611" x2="49.333" y2="8.653"></line><path class="cls-3" d="M61.43,39.325h1.36l5.188,12.7H66.26l-1.5-3.721H59.426l-1.485,3.721H56.224Zm2.97,7.728-2.29-5.867-2.361,5.867Z" transform="translate(0 0)"></path><path class="cls-3" d="M69,39.325,73.2,50l4.187-10.679h1.7L73.9,52.025H72.5L67.3,39.325Z" transform="translate(0 0)"></path><path class="cls-3" d="M85.472,52.115a5.411,5.411,0,0,1-2.441-.546,6.025,6.025,0,0,1-1.888-1.449,6.578,6.578,0,0,1-1.216-2.065,6.823,6.823,0,0,1-.43-2.38,6.61,6.61,0,0,1,.456-2.433,6.7,6.7,0,0,1,1.262-2.057,6.057,6.057,0,0,1,1.905-1.423,5.451,5.451,0,0,1,2.388-.527,5.218,5.218,0,0,1,2.433.563,6.242,6.242,0,0,1,1.879,1.476,6.854,6.854,0,0,1,1.646,4.419,6.739,6.739,0,0,1-1.709,4.48,6.007,6.007,0,0,1-1.9,1.413A5.44,5.44,0,0,1,85.472,52.115Zm-4.347-6.44a5.665,5.665,0,0,0,.313,1.87,5.148,5.148,0,0,0,.885,1.6A4.292,4.292,0,0,0,83.7,50.255a3.869,3.869,0,0,0,1.789.411,3.742,3.742,0,0,0,1.824-.438,4.431,4.431,0,0,0,1.368-1.145,5.114,5.114,0,0,0,.859-1.6,5.742,5.742,0,0,0,.295-1.807,5.664,5.664,0,0,0-.313-1.869,4.948,4.948,0,0,0-.895-1.592,4.485,4.485,0,0,0-1.377-1.1,4.036,4.036,0,0,0-3.587.019A4.4,4.4,0,0,0,82.3,42.259a5.139,5.139,0,0,0-.868,1.592A5.651,5.651,0,0,0,81.125,45.675Z" transform="translate(0 0)"></path><path class="cls-3" d="M92.878,45.586a6.81,6.81,0,0,1,.4-2.281,6.357,6.357,0,0,1,1.181-2.039,5.959,5.959,0,0,1,1.905-1.458,5.727,5.727,0,0,1,2.559-.555,5.34,5.34,0,0,1,2.915.77,4.78,4.78,0,0,1,1.808,2l-1.271.822a3.7,3.7,0,0,0-.688-1.02,3.533,3.533,0,0,0-.877-.662,3.763,3.763,0,0,0-.975-.357,4.708,4.708,0,0,0-.984-.107,3.885,3.885,0,0,0-1.869.438,4.313,4.313,0,0,0-1.368,1.145,4.947,4.947,0,0,0-.832,1.592,5.943,5.943,0,0,0-.277,1.78,5.494,5.494,0,0,0,.331,1.905,5.242,5.242,0,0,0,.921,1.6,4.486,4.486,0,0,0,1.4,1.109,3.8,3.8,0,0,0,1.753.411,4.43,4.43,0,0,0,1.029-.125,3.738,3.738,0,0,0,1.011-.4,4.323,4.323,0,0,0,.9-.7,3.419,3.419,0,0,0,.688-1.011l1.342.733a3.965,3.965,0,0,1-.85,1.261,5.361,5.361,0,0,1-1.234.921,6.309,6.309,0,0,1-1.458.573,6.064,6.064,0,0,1-1.5.2,5.078,5.078,0,0,1-2.4-.572,6.378,6.378,0,0,1-1.887-1.494,6.949,6.949,0,0,1-1.673-4.48Z" transform="translate(0 0)"></path><path class="cls-3" d="M109.586,39.325h1.359l5.188,12.7h-1.717l-1.5-3.721h-5.331L106.1,52.025H104.38Zm2.97,7.728-2.29-5.867L107.9,47.053Z" transform="translate(0 0)"></path><path class="cls-3" d="M117.832,52.025v-12.7h4.4a6.685,6.685,0,0,1,2.675.5,5.443,5.443,0,0,1,1.923,1.36,5.669,5.669,0,0,1,1.154,2.012,7.749,7.749,0,0,1,.385,2.46,7.579,7.579,0,0,1-.43,2.621,5.609,5.609,0,0,1-1.234,2,5.525,5.525,0,0,1-1.941,1.288,6.723,6.723,0,0,1-2.531.456Zm8.909-6.368a6.318,6.318,0,0,0-.3-1.977,4.248,4.248,0,0,0-.876-1.548,4.116,4.116,0,0,0-1.422-1.011,4.757,4.757,0,0,0-1.915-.366h-2.79v9.839h2.79a4.749,4.749,0,0,0,1.941-.376,3.885,3.885,0,0,0,1.413-1.037,4.562,4.562,0,0,0,.858-1.565A6.259,6.259,0,0,0,126.741,45.657Z" transform="translate(0 0)"></path><path class="cls-3" d="M135.792,52.115a5.411,5.411,0,0,1-2.441-.546,6.025,6.025,0,0,1-1.888-1.449,6.578,6.578,0,0,1-1.216-2.065,6.823,6.823,0,0,1-.43-2.38,6.61,6.61,0,0,1,.456-2.433,6.7,6.7,0,0,1,1.262-2.057,6.057,6.057,0,0,1,1.905-1.423,5.451,5.451,0,0,1,2.388-.527,5.218,5.218,0,0,1,2.433.563,6.242,6.242,0,0,1,1.879,1.476,6.854,6.854,0,0,1,1.646,4.419,6.739,6.739,0,0,1-1.709,4.48,6.007,6.007,0,0,1-1.9,1.413A5.44,5.44,0,0,1,135.792,52.115Zm-4.347-6.44a5.665,5.665,0,0,0,.313,1.87,5.148,5.148,0,0,0,.885,1.6,4.292,4.292,0,0,0,1.378,1.109,3.869,3.869,0,0,0,1.789.411,3.742,3.742,0,0,0,1.824-.438A4.431,4.431,0,0,0,139,49.083a5.114,5.114,0,0,0,.859-1.6,5.742,5.742,0,0,0,.295-1.807,5.664,5.664,0,0,0-.313-1.869,4.948,4.948,0,0,0-.895-1.592,4.485,4.485,0,0,0-1.377-1.1,4.036,4.036,0,0,0-3.587.019,4.4,4.4,0,0,0-1.368,1.127,5.139,5.139,0,0,0-.868,1.592A5.651,5.651,0,0,0,131.445,45.675Z" transform="translate(0 0)"></path><path class="cls-3" d="M151.48,41.99a2.671,2.671,0,0,0-.572-.483,5.19,5.19,0,0,0-.806-.42,5.727,5.727,0,0,0-.975-.3,5.123,5.123,0,0,0-1.1-.116,3.456,3.456,0,0,0-2.173.555,1.848,1.848,0,0,0-.688,1.521,1.692,1.692,0,0,0,.2.858,1.614,1.614,0,0,0,.617.582,4.691,4.691,0,0,0,1.047.42q.625.18,1.484.376a15.6,15.6,0,0,1,1.78.492,5.181,5.181,0,0,1,1.359.688,2.751,2.751,0,0,1,.858,1,3.21,3.21,0,0,1,.295,1.449,3.322,3.322,0,0,1-.357,1.583,3.169,3.169,0,0,1-.975,1.108,4.208,4.208,0,0,1-1.458.645,7.692,7.692,0,0,1-1.825.205,8.408,8.408,0,0,1-2.781-.456,7.774,7.774,0,0,1-2.389-1.332l.77-1.359a4.267,4.267,0,0,0,.742.607,6.056,6.056,0,0,0,1.038.546,7.666,7.666,0,0,0,1.252.394,6.322,6.322,0,0,0,1.4.152,3.9,3.9,0,0,0,2.111-.483,1.787,1.787,0,0,0,.51-2.353,2.058,2.058,0,0,0-.707-.635,5.452,5.452,0,0,0-1.153-.474q-.69-.207-1.565-.421a15.516,15.516,0,0,1-1.7-.5,4.63,4.63,0,0,1-1.225-.644,2.425,2.425,0,0,1-.742-.912,3.013,3.013,0,0,1-.251-1.288,3.633,3.633,0,0,1,.34-1.61,3.386,3.386,0,0,1,.948-1.181,4.134,4.134,0,0,1,1.449-.725,6.577,6.577,0,0,1,1.824-.241,6.39,6.39,0,0,1,4.168,1.449Z" transform="translate(0 0)"></path></svg>